<svg xmlns="http://www.w3.org/2000/svg" width="1333.333" height="1333.333" viewBox="0 0 1000 1000" preserveAspectRatio="xMidYMid meet" xmlns:v="https://vecta.io/nano"><path d="M485.5 84.6c-13.6 2.9-15.3 2.9-31.3.3l-13-2.1-13 6.1c-11.9 5.5-14.4 6.2-27.9 8.5-12.1 2.1-17 3.4-27.2 7.6-10.3 4.3-14.8 5.6-27 7.5-14.1 2.3-15 2.6-26.1 8.6-12.2 6.5-16.2 9.1-30.4 19.4-4.8 3.6-19.3 12.8-32.1 20.5l-23.3 14-17.5 18.7-28.2 31.3c-5.9 6.9-15.8 17.7-22 24-15.7 16.1-23.6 28.3-30 46.6-4.6 12.9-5.5 14.6-13.6 25.4-8.2 10.8-9.1 12.4-13.7 25.6-2.8 7.8-7.5 19.8-10.5 26.7-13.1 29.4-17.4 53.7-14.8 83.6 1 11.9 1 18.6-.1 36.6-1.9 31.5-1.7 37 1.4 51.5 1.6 7.1 3.2 18.6 3.7 26.5.9 13.6 1.1 14.4 6 26.1 4.1 9.9 5.4 14.3 6.6 23.5 2.3 17.1 3.3 21.3 8.2 34.3 3.6 9.9 5.8 13.8 12.7 23.5 4.7 6.4 13 20.1 18.6 30.6 11.7 21.9 17.9 31.5 28.4 43.9 4.1 4.9 10.4 13.9 14 20 7.4 12.6 9.1 14.5 23.3 24.4 19 13.4 29.8 22.4 41.6 34.8 22.1 23.1 31.4 29.6 60.3 41.9 14.7 6.3 25.7 9.8 38.9 12.4 17.3 3.4 37.1 9.5 50.7 15.5 14.3 6.3 16.9 7 33.8 9.1 6.9.9 18.4 2.7 25.6 4.1l13.1 2.5 12.4-2.1c10.8-1.9 14.6-2.1 29.4-1.5 17.8.6 31.2-.6 59-5.5 6.1-1 17.7-2.4 25.8-3 14.6-1 15-1.1 31-7.1 8.9-3.4 20.1-7.9 24.8-9.9 4.7-2.1 14.9-6.2 22.5-9 7.6-2.9 15.3-5.9 16.9-6.8 6.3-3.2 26.8-18.7 46.5-35.2 11.3-9.4 25.8-20.8 32.3-25.2 10.2-7 13-9.6 20-18.2 4.4-5.6 18-20.2 30.2-32.6 24.5-24.9 25.9-26.8 42-59 3.7-7.4 10.1-18.4 14.1-24.3 4-6 7.6-12.3 7.8-14.1.3-1.7 1-7.4 1.6-12.6 1.5-12.5 2.2-14.5 9.7-27.7l6.5-11.1.9-14.4c.7-12.2 1.5-16.8 5-28.9 4.7-16.7 8.9-37 8.9-43.1 0-2.3-.7-9.3-1.6-15.6-1.6-10.7-1.6-12.3.1-25.8 2-16.4 1.3-27.3-3.1-53.4-4.2-25-9.5-41.7-25.4-80.5l-12.9-32.7c-3.7-10.8-4.6-12.6-13.2-26.3-3.9-6.2-10.9-15.5-16.2-21.3-7.2-7.8-10.8-12.9-15.3-21.3-10.2-19.1-22.3-33.6-39.9-47.9-5.4-4.5-10.7-10.2-17-18.5-6.5-8.7-11.2-13.7-17-18.2-12.1-9.5-15.3-11.1-29.7-15-18.8-5-33.3-13-47.3-26.4-5.5-5.3-11-10.1-12.2-10.7-1.2-.7-10-2.8-19.5-4.8-27.1-5.5-36.3-7.9-50.3-13-12.8-4.6-13.3-4.7-29.5-5.5-9.1-.4-28.2-2.4-42.4-4.3l-27.5-3.5c-.9.1-6.5 1.2-12.6 2.5zm5.2 62.2c1.2.8 1.6 2.4 1.4 5.9-.1 1.9-.8 2.2-7.8 2.8-11 .9-11.3 1.1-11.3 5.1 0 2 .5 3.5 1.3 3.5.6.1 4.1.2 7.7.3l6.5.1v4 4l-7.3.9-7.3.9.3 4.1.3 4.1H485h10.5l.3 4.2c.3 4.1.3 4.1-3.5 4.7-7.6 1.1-27.1 1.8-27.6 1-.7-1.3-1.5-9.5-2.2-23.9l-1-15.7c-.1-1.4.1-3.1.5-3.8s5.1-1.3 11.6-1.7c6-.3 11.1-.7 11.3-.9.7-.7 4.5-.4 5.8.4zm36.7.2c12.1 2 18.3 7.2 20.6 17.4 2.2 9.9-2.6 21.2-10.6 25.2-6.5 3.2-31 2.9-31.6-.4-.5-2.6 2.7-40.6 3.5-42 1-1.5 9.7-1.6 18.1-.2zm-85 8.1c1.4 1.1 3.3 3.4 4.1 4.9 1.9 3.6 1.9 10.7 0 14-2.3 4.1-1.8 5.9 3.6 12.1 2.8 3.3 4.9 6.5 4.6 7.3-.5 1.2-4.9 2.6-8.2 2.6-.7 0-3.8-3.2-6.9-7-5.3-6.6-8.5-8.5-10.1-6.1-.3.6 0 4.2.6 8.1 1 6 1 7.3-.2 8.1-1.9 1.2-7.6 1.1-8.4-.1-.8-1.4-7.5-36.9-7.5-40.1 0-2.4.5-2.7 6.8-4.2 10.2-2.3 18.3-2.2 21.6.4zm158.8 4c4.6 1.2 4.8 2.1 6.3 22.9.4 4.7 1 11.8 1.6 15.8.5 4.1.7 7.8.3 8.3-.7 1.2-6.1 1.1-8.4-.1-1.3-.7-2.1-2.6-2.6-6l-.7-5-6.4-2c-3.6-1.1-6.9-2-7.4-2s-2.1 1.8-3.5 4c-1.8 2.7-3.4 4-5 4-3.4 0-7.4-1.8-7.4-3.3 0-1.1 14.4-22.1 23.7-34.5 2.6-3.5 3.8-3.7 9.5-2.1zm-205.9 9.2c13.1 7.7 15.7 26.7 5.1 37.3-15.1 15.2-40.6 4.8-40.6-16.5 0-11.4 6.1-19.6 17.2-23.2 4.5-1.5 13.7-.3 18.3 2.4zm248.9 5.3c10.5 4.4 13.8 7.6 14.5 13.8.7 5.7-.9 9.7-5.4 13.6-2.7 2.4-4.3 3-8.2 3-2.7 0-6.5-.7-8.5-1.5-2-.9-4.2-1.3-4.7-.9-.6.3-2.2 3.3-3.6 6.6-2.5 5.7-2.8 6-5.6 5.4-3.4-.7-5.7-2.3-5.7-4.1 0-.9 9.3-23.9 15-37.3 1.3-2.9 2.4-2.8 12.2 1.4zm-302.5 15c3.2 2 4.7 5.3 4.8 10.4 0 4.1.2 4.5 3.1 5 4.3.9 5.2 1.6 7.5 6.2 2.9 5.7 2 9.6-3.6 14.7-6.1 5.6-18.9 11.9-21.3 10.5-2.3-1.5-20.5-36.2-19.8-37.9.6-1.6 10.7-7.1 17.6-9.6 4.8-1.8 8.2-1.6 11.7.7zm349.6 7.7c11 6.2 12 7.4 9.7 11.8-1.5 2.8-3.3 2.4-11.8-2.3l-7.5-4.1-1.9 2.3c-2.7 3.3-2 5 3.9 8.4 2.8 1.7 5.5 3.4 5.8 3.8 1 1-2.4 6.8-4 6.8-.9 0-4.1-1.4-7.2-3.2-5.4-3.1-5.6-3.1-7-1.2-4.2 5.5-4.1 5.6 7.5 12.3 3.9 2.3 7.2 4.8 7.2 5.6s-1 2.6-2.3 4.1l-2.3 2.7-13-7.4c-7.4-4.3-13-8.2-13.2-9.2-.3-1.7 5.5-12.6 15.6-29 6.3-10.3 4.9-10.2 20.5-1.4zm-93.1 134.2c18 3.1 33.1 12 41.2 24.2 3.9 5.9 24.2 25.8 29.2 28.6.8.4 2.4 2.7 3.5 5 3.3 6.4 2.2 18.7-3 34.3-2.2 6.6-4.5 14.8-5.2 18.4-2.5 13.8-5 22.4-7.9 27.5-4.5 7.9-11.7 15.5-16.8 17.6l-4.4 1.9-15.2-7.5c-8.3-4.1-21.1-9.7-28.5-12.3-19-6.7-17.6-3.4-17.7-40.5 0-19.6-.4-32.1-1.2-35.7-2-8.9-4.2-16.2-6.4-20.4-2.6-5.2-10.3-13.2-15.3-16.1-5.4-3.1-15.6-6.1-23.8-7-3.7-.4-7-1.1-7.2-1.5-.7-1.1 3.5-4 12-8.3 9.6-4.8 12.7-5.6 30.7-7.5 22.3-2.4 25.8-2.5 36-.7zm-146.4 20.9c16.9 8.4 21.4 9 42.2 5.1 12.9-2.3 34.6-1.7 44 1.4 13.2 4.2 19.9 10.9 24.5 24.4 3.6 10.9 4.4 20 3.9 48.2-.5 34.8.4 37 17.5 42.6 17.6 5.9 37.1 14.6 37.1 16.8 0 .4-2.1 2.2-4.6 4.1l-4.6 3.2-8.6-4c-25.5-11.9-36.7-12.8-50.1-4.2-5 3.2-6.5 5-9.1 10.2-3.6 7.3-5.4 9.4-13.3 15.5-8.8 6.8-9.1 7.7-9.7 29.6l-.5 18.9-2.8 2.4c-5 4.3-5.7 3.5-5.7-7 0-7.2-.4-9.6-1.5-10.6-1.9-1.6-7-1.5-11.1.1-1.6.6-6 1-9.8 1-4.8-.1-7.6.3-9.3 1.4-2.1 1.4-3 1.5-5.4.5-1.8-.8-4.8-1-7.7-.6-2.6.3-6 .2-7.7-.2-1.8-.5-5.6-.4-9.5.4-5.8 1.1-6.9 1-10.1-.7-2.3-1.1-6.1-1.9-10-2-4.1-.1-7-.7-8.1-1.6-1.6-1.5-4.3-1.4-7.8.1-1.1.4-2.1-.4-3.4-2.9-3.1-5.7-12-8.9-18.1-6.6-1.3.5-3.4 0-6.4-1.6-2.4-1.2-6-2.3-8-2.3-2.1 0-4.2-.5-4.8-1.1-.7-.7-4.2-1.5-8-2-8.1-.9-17.3-3.9-17.3-5.6 0-.7 6.7-8.1 14.8-16.5 19.3-19.9 20.1-22.1 13.2-37.7-3-6.8-3.1-7.7-2-11.9.6-2.6 4.8-10.2 9.5-17.5 7.5-11.4 9-14.6 13.1-27.1 2.5-7.7 5.5-19 6.6-25 2-11.4 8.5-30.5 11.5-33.9 1.9-2 8.2-5.5 12.3-6.8 1.4-.4 5.5-.8 9.3-.8 6-.1 7.6.3 15.5 4.3zm279 128l3.8 6.2c1 1.7 1.4 1.4 4.2-3.1 4.1-6.6 5-7.5 7-7.5 4.8.1 4.7 1.6-.6 10.9-4.3 7.6-5.2 9.9-5.2 14 0 5.3-2.1 8.7-4.7 7.7-.8-.3-1.9-.6-2.4-.6s-.9-2.2-.9-5c0-4.6-3.3-12.5-9-21.7-1.8-2.8-.6-5.3 2.5-5.3 1.9 0 3.2 1.1 5.3 4.4zm64.9-2.4c1.7 1 3.7 2.9 4.4 4.1 1 1.9.9 2.5-.7 3.6-2.5 1.8-3.5 1.7-7.4-1.2-4.1-3-5.9-3.1-9.2-.5-6.3 4.9-3 19 4.4 19 .9 0 3.3-1.4 5.1-3 4.3-3.7 8.7-4.1 8.7-.7 0 7.8-13 12.5-22 7.9-4.9-2.5-7.3-7.2-7.4-14.6-.1-6.9 2.1-11.4 7-14.7 4-2.6 12.8-2.6 17.1.1zm-586.2.4c4.1 1.7 5.3 5.1 3.7 10.4-.9 2.9-.9 4.1.3 5.9 3.3 5 .8 12.4-4.8 13.8-1.2.3-6.2.5-11.2.3l-9-.3-.3-14.5c-.1-7.9 0-15 .2-15.7.7-1.9 16.6-1.7 21.1.1zm47.9.9c2.2 3.3 10.7 27.7 10 28.8-.3.5-1.8.9-3.4.9-2.1 0-3.3-.8-4.9-3.5-1.9-3.3-2.4-3.5-7.1-3.5s-5.2.2-7.1 3.5c-1.6 2.7-2.8 3.5-4.9 3.5-1.6 0-3.1-.4-3.4-.9-.8-1.3 9.1-29.3 10.7-30.3.6-.4 2.9-.8 4.9-.8 2.8 0 4.1.6 5.2 2.3zm322.4 13.2c2.8.9 5.4 2 5.7 2.6.4.5-3 7.4-7.4 15.4-7.8 13.9-11.1 22.5-11.1 29.1 0 10.2-2.5 12.4-16.9 15a302.12 302.12 0 0 0-15 3c-3 .7-5.8 1.1-6.3.8-.4-.3-.8-7.3-.8-15.7v-15.1l4.7-4c9.6-8.4 14.1-13.5 17.4-19.7 3-5.7 4.1-6.7 9.7-9.6 7.2-3.7 12-4.2 20-1.8zm21.8 8.5c3.6 1.7 6.7 3.7 7 4.5.4.8-.8 3.2-2.5 5.4-7.6 9.6-9.2 18.2-8.4 46.8.6 25.4-.4 29-13.5 49-7.5 11.3-12.3 16.7-17.9 20-6.2 3.6-9.8 4.2-27.3 4.4-21.6.2-30.8 1.4-42.5 5.5-5.5 1.9-12 3.9-14.5 4.5-4.6 1.1-54.4 1.3-64.6.3-25.7-2.5-38.3-5-45-8.9-6.1-3.6-14.3-13.1-19.5-22.6-5.8-10.4-11.1-22.8-10.3-24 1-1.7 4.1-.9 7.9 2.1 3.3 2.6 4.6 3 10.1 3 6.4 0 6.4 0 8.9 4 3.4 5.4 6.3 6.7 10.3 4.6 3.1-1.6 3.2-1.6 6.3 1.5 5.6 5.5 11.1 7.3 22 7.4 10.6 0 13.9-1.4 13.9-6 0-1.6.8-2.5 2.4-2.9 1.3-.3 3.1-.9 3.9-1.2 1.2-.4 1.9.5 2.6 3.4 1.4 5.1 4 7.3 9.4 7.9 6 .7 11.2-1.2 14.5-5.3 3.2-4 3.6-4.1 6.9-1.4 5.2 4.1 11.7 2.1 15.2-4.7 1-1.9 1.7-2.1 6.6-1.6l5.6.6 4.2-4.6c3.2-3.5 4.6-4.4 5.7-3.7.8.5 3.2 1 5.2 1 4.6 0 7.6-2.9 8.5-8.3.4-2.9 1.3-4.2 3.5-5.3 1.7-.9 4.9-3.3 7.3-5.5 5.2-4.8 9.2-6.2 24.8-8.9 20.7-3.7 23.9-6.3 25.6-21.6.9-7.6 1.7-10.3 5.8-18.3 7.7-15.2 13.2-24 15.1-24.1.2 0 3.2 1.4 6.8 3zm-247.4 34.3c.8 1.3.8 1.2-4.3 8.9-4.2 6.1-5.5 7-8.1 5.6-3.3-1.6-1.3-8.8 3.8-14.4 2-2 3-2.5 5.2-1.9 1.5.4 3 1.2 3.4 1.8zm14.8 2.8c0 .7-1.5 3.5-3.3 6.3s-3.9 6.3-4.7 7.8c-1.5 3.1-5.9 3.9-8 1.4-.9-1.2-.6-2.4 1.4-5.8 4.2-7.2 8.1-10.8 11.5-10.8 1.7 0 3.1.5 3.1 1.1zm14 3.7c3 2.5 2.3 5.2-3.5 13.1-4.1 5.5-4.8 6.1-7.3 5.5-4.1-1-6.2-2.3-6.2-3.9 0-2.6 6.8-13 9.7-14.7 3.6-2.2 4.6-2.2 7.3 0zm21.2 4.2c3.7 4.6 3.2 12.5-1.1 16.4-1.9 1.8-8.4 2.3-14.9 1.1-7-1.2-6.9-1.7 3.1-15.4 3.8-5.1 4.1-5.3 7.6-4.7 2 .3 4.4 1.5 5.3 2.6zm-67.9 11.9c-.2 3-.5 5.7-.8 6-1.6 1.5-4.3-8.7-3-10.9.4-.6 1.4-1 2.3-.8 1.4.3 1.7 1.4 1.5 5.7zm102-2.1c4 3.6.3 17.9-7.7 30.5-1.8 2.8-3.7 4.6-4.6 4.5-2.1-.4-5-12.6-5.1-21.4-.1-8.1 1.9-14 5.3-15.4 3.1-1.3 9.8-.3 12.1 1.8zm68.5 2.9c.3 4.8.1 5.4-2.2 6.4-3.4 1.6-5.6-.3-5.6-4.8 0-5.1 1.6-7.5 4.8-7.1 2.5.3 2.7.7 3 5.5zm-90.1.5c-1.5 13.1-1.8 22.1-.9 31.8 1.2 12.3.8 13-7.2 13-11.2-.1-19.6-3.9-19.6-8.8 0-3.7 24.8-41.2 27.2-41.2.7 0 .9 1.8.5 5.2zm73.1 1.4c.3 5.7-.9 7.4-5.5 7.7-2.8.2-2.8.1-2.4-4.8.4-6.8 1.6-8.7 4.9-8.3 2.5.3 2.7.7 3 5.4zm-30-1.5c.2 1.4-.8 5.4-2.1 9-2.3 6.2-2.5 6.4-6.2 6.7-2.1.2-4.2-.1-4.7-.6-1.2-1.2.9-15 2.5-17 .6-.8 2.7-1.2 5.6-1 4.1.3 4.6.6 4.9 2.9zm14.7-.7c1.8 2.7 1.1 9.8-1.2 12.2-1.8 1.7-6.3 1.8-8.6.1-1.4-1-1.5-1.9-.6-5.7.6-2.5 1.7-5.5 2.5-6.8 1.9-2.9 5.9-2.9 7.9.2zm-127.2 11.1c-.1 7.1-.5 9.1-1.7 9.3-2.8.6-3.9-3.5-3.7-13.6.1-5.2.2-5.3 2.9-5l2.7.3-.2 9zm12.1-5.1c3.1 1.3 3.3 1.7 4 8.2 1.4 13 1.7 11.9-3.4 11.9-4.2 0-4.6-.2-5.7-3.5-1.6-4.6-1.6-15.3-.1-16.8s1.2-1.5 5.2.2zm21.6 5.2c.8.1 3.6.3 6.3.3 4.4.1 4.7.3 4.7 2.7 0 3.3-5.2 13.1-9.7 18.4-4.9 5.7-7.1 5.2-10.1-2.4-2.7-6.7-4.7-16.9-3.8-19.1.5-1.5 4.4-1.5 12.6.1zm125.8 3.6c1.5 1.5 1.6 7.2.2 9.9-.6 1.1-2.1 1.9-3.5 1.9-2.9 0-4.5-2.6-4.5-7.5 0-2.8.5-3.8 2.3-4.5 3.1-1.2 4.1-1.2 5.5.2zm-15 6.8c.4 6.5-2.4 11.5-6.3 11.5-2.6 0-3.2-.5-4.3-4-.7-2.2-1.2-5.5-1-7.5.3-3 .7-3.6 3.3-4.1 1.7-.4 4.1-.6 5.5-.6 2.2.2 2.5.7 2.8 4.7zm-17.2 1.4c.7 3.1-1.2 13.3-3.2 16.3-1.1 1.8-2.3 2.3-4.2 2.1-3.4-.4-5.1-4.7-5.1-13.1-.1-6.5 1-7.5 8.1-7.6 3.1-.1 3.9.3 4.4 2.3zm-20.6 5.7c1.2 4.4-.5 11.8-3.3 14.7-2.2 2.1-3.6 2.6-7.9 2.7-4.8 0-5.4-.3-6.6-2.8-1.1-2.2-1.1-3.9-.2-8.5 2-9.2 2-9.3 10.2-9 6.7.3 7.2.5 7.8 2.9zm237.8 161.3c3 1.6 4.7 4.2 6 9.6.7 3.2 1.2 3.6 5 4.1 5.1.7 8.9 4 9.8 8.6.9 4.9-.2 7.9-4.9 13-4.4 4.8-14.9 13.3-16.4 13.3-1.4 0-27.3-32.5-27.3-34.3 0-1.7 11.2-11 16.8-13.8 4.3-2.3 7.4-2.4 11-.5zm-371.4 10.7l3.6 2.1v9.4c0 6.5.4 9.4 1.2 9.4.6 0 4-1.6 7.5-3.5s7-3.5 7.8-3.5c1.9 0 7.7 5 7.2 6.3-.1.5-5.9 3.6-12.7 6.7-12.5 5.8-12.5 5.8-17.7 13.1-2.9 4.1-5.9 7.5-6.6 7.7-.6.1-2.7-1-4.5-2.5l-3.3-2.8 5-7.8c4.8-7.7 4.9-8.1 5.5-17.5l1.5-19c.2-.7 2.4 0 5.5 1.9zm340.9 19.1c12 20.3 13 24.7 7.8 33-3.4 5.3-11.3 9.8-17.3 9.8-4.2 0-10.4-2.7-12.9-5.6-2.1-2.5-15.9-26.8-15.9-28.1 0-1.5 6.5-4.7 8.2-4 .8.3 4 5 7.2 10.6 7.6 13.5 9.9 16.1 14.1 16.1 1.8 0 4.4-.9 5.9-2.1 4.2-3.3 3.5-6.8-4.4-20.6-3.8-6.8-7-12.7-7-13.2 0-1.4 5-5.1 7-5.1 1.1 0 3.7 3.2 7.3 9.2zm-294.6 8.7c1.8 1.1 3.3 3 3.5 4.3.5 3.7-4.2 43.2-5.3 44.3-.6.6-2.2.3-4.7-1-3.5-1.9-3.7-2.2-4-7.8l-.3-5.8-6.4-3.1-6.5-3.2-3.3 3.2c-1.8 1.8-4.1 3.2-5 3.2-3 0-7.8-3-7.5-4.6.5-2.5 32.1-31.3 34.3-31.4 1.1 0 3.4.9 5.2 1.9zm236.8 27.5c3.4 8.2 6.7 15.2 7.3 15.4.7.2 4.9-1.1 9.4-2.9 5.8-2.3 8.5-3 9.6-2.2 2 1.2 3.7 6.2 2.6 7.2-.5.5-7 3.2-14.3 6.1-12.6 4.8-13.6 5.1-14.8 3.4-1.7-2.3-15.3-36.8-15.3-38.8 0-2.1 3-3.6 6.5-3.3 2.9.2 3.2.8 9 15.1zm-192.4-11.3c4.6 1.6 9.7 5.5 12 9.3 2.6 4.3 2.4 5-1.8 7l-3.6 1.7-3.7-4.2c-3.3-3.8-4.1-4.2-9.3-4.7-5.4-.4-5.8-.3-9.1 3-10.7 10.7-3.1 27 11.1 23.7 5.7-1.3 6.2-1.2 8.3 2.3 2.3 3.7 1.9 4.5-2.8 6.5-4.9 2-14.3 1.8-19.5-.5-4.4-2-10.2-7.8-11.7-11.8-4.4-11.4 1.1-25.6 12-31.4 4-2.2 12.9-2.6 18.1-.9zm165.5 4.8c5.3 2.4 5.8 3.4 4 7-2 3.8-3.1 4-8.2 2.2-3.9-1.4-4.8-1.4-8.6-.1-5.1 1.8-8.8 6.7-8.8 11.8 0 5.4 3.5 11.7 7.4 13.6 6.1 2.9 10.4 1.9 16.3-3.7 2.9-2.8 3.4-2.9 6.2-1.8 5.5 2.3 5 5.5-1.9 11.4-9.6 8.2-24.9 7.5-32.4-1.4-7.2-8.5-8.5-19.8-3.5-29 5.4-9.7 19.6-14.5 29.5-10zM441.5 811c2.5 1 2.5 1 1.9 8.9-.7 8.6-.9 8.4 5.6 9.4 1.4.3 4.3.8 6.6 1.1 5.1.9 5.9-.1 6.8-7.8.8-7.4 1.9-8.9 6-8 5.7 1.1 5.7 1.1 2.7 23-1.6 11.1-3.2 20.7-3.5 21.3-.9 1.4-5.1 1.4-7.7 0-1.8-.9-1.9-1.9-1.7-9.7l.3-8.7-8-1.2c-9.6-1.5-10-1.3-11 8.2-.3 3.5-1.3 6.9-2 7.5-1.5 1.2-8.1.4-9.1-1.1-.3-.5.4-7.1 1.5-14.6l2.7-20.1c.9-8.6 2.9-10.5 8.9-8.2zm78 8.5c0 3.9-.1 4-3.5 4.3-1.9.1-5 .5-6.8.8l-3.3.5.2 17c.3 18.4.2 18.9-5.1 18.9-4.7 0-4.9-.7-5.7-18.5l-.8-17-6-.3c-6.8-.3-8.4-1.6-7.7-6.1.4-2.9.7-3 6.1-3.4 3.1-.2 11.7-.3 19.1-.3l13.5.1v4zm-1.1-662.1c-.4.9-.7 7-.8 13.4l-.1 11.7 4.9.3c9.9.6 14.6-3.8 14.6-13.7 0-5.3-.4-6.5-2.9-9.3-2.4-2.7-3.6-3.2-8.9-3.6-5.1-.4-6.3-.1-6.8 1.2z"/><path d="M428.5 161.9c-3.5.7-4.3 3.3-2.5 8.7 1.2 3.4 1.4 3.6 4.7 3.1 6.8-1.1 9.5-6.5 5.3-10.7-2.1-2.1-2.6-2.2-7.5-1.1zm163.3 14.5c-3.4 5.3-3.5 7.4-.4 8.2 3.6.9 6 .1 6.4-2 .6-3.1-.9-10.6-2.1-10.6-.7 0-2.4 2-3.9 4.4zm-214.8-.1c-3.4 1.7-7 7.4-7 11.1 0 1.7.9 5 2 7.3 5.9 13.1 24.2 9.9 24.2-4.2 0-11.4-10-18.8-19.2-14.2zm259.9 10.4l-2 4.8 2.1 1.7c4.4 3.5 10.3 1.7 11.5-3.4.9-3.4-3.1-7.8-7-7.8-2.1 0-2.9.8-4.6 4.7zm-310.4 11.6l-2.6 2.2 2.4 3.5c2.5 3.7 4.2 4 8.4 1.3 2.5-1.7 3.1-6.1 1.1-8.1-1.9-1.9-6.5-1.4-9.3 1.1zm9.8 14.7c-1.8 1.1-3.3 2.4-3.3 3 0 1.9 4 9 5.1 9 3.5 0 9.9-5.5 9.9-8.6 0-5.2-5.9-7-11.7-3.4zm100.3 149.4c-8.2 3-11.7 7.5-15.7 19.6-1.2 3.6-4.2 10.3-6.7 15l-6.9 12.9c-6.5 12.3 1.8 22.5 18.1 22.3 7.8-.1 21.1-3.2 25-5.7 5-3.3 7.5-9.5 10.2-25.7 3.2-19.1 3.3-24 .7-30-1.6-3.5-3.1-5.2-6.3-6.8-5.5-2.8-13.3-3.5-18.4-1.6zm3.4 10.1c0 2.1-7.2 18.5-11 25.2-5.8 10.1-7 13.3-7 19.4 0 5.1-1.1 6.2-4.7 4.6-3.8-1.7-3.7-4.3.3-11.5 5.9-10.4 9-17 12.3-26.1s5.4-12.1 8.3-12.1c1 0 1.8.2 1.8.5zm62.5-4.7c-9.7 4.1-13.4 8.2-10.5 11.7 1.7 2.1 4.2 1.9 9.5-.7 2.4-1.2 4.7-1.9 5-1.6.4.3-2.5 5.8-6.4 12.2-9.4 15.7-10.5 19.3-9.8 32.3.4 9.6.4 10.3-1.4 10.3-2 0-3.5-2.2-4.4-6.6-.9-5.2-.7-16.9.4-21.2 2.6-9.4 1-14.8-4-13.5-2.6.7-3.4 2.5-5.3 11.7-1.9 8.9-1.3 26.2.9 30.6 2.9 5.7 9 9.3 19.5 11.5 14.3 3 25.3 1.3 32.7-4.9 7-6.1 18.1-26.6 19-35.2 1.5-14.7-10.3-33.3-23.7-37.3-5.5-1.6-16.8-1.3-21.5.7zm-96.9 79.3c-7.5 1.8-9.8 5.4-12.2 19.5-.9 5.5-3.2 14.2-5.1 19.4-2.7 7.5-3.3 10.4-2.8 13.7.8 5.7 4.2 10.4 9.5 13.1 5.8 3 9 2.5 20-2.9 6.8-3.4 10.2-6 17.6-13.3 11.1-11.1 13.9-16.3 13.9-25.8 0-5.9-.3-7.1-3-10.5-3.9-4.8-15.5-10.7-24.4-12.3-3.6-.6-7.3-1.3-8.1-1.5-.8-.1-3.3.1-5.4.6zm4.9 9.9c.3.6-.5 3.9-1.9 7.4-1.4 3.6-2.6 8.3-2.6 10.5s-1.3 8-2.9 12.9c-1.6 4.8-3.1 10.3-3.3 12.2-.5 4.1-2.2 4.9-3.9 1.9-1.7-3.3-1.4-6.9 1.5-13.6 1.3-3.3 3.5-11.2 4.7-17.7 1.2-6.4 2.8-12.4 3.6-13.2 1.7-1.6 3.9-1.8 4.8-.4zm-214.6 26c-.1.5-.2 1.6-.3 2.2-.4 2.4 1.7 3.8 5.5 3.8 4.3 0 6.4-2.2 4.8-5.2-.7-1.3-2.2-1.8-5.4-1.8-2.5 0-4.6.4-4.6 1zm1.9 11.7c-1.3.3-1.8 1.4-1.8 3.8 0 3.8 2.2 4.7 7.8 3.3 2.5-.7 3.2-1.4 3.2-3.3 0-1.3-.5-2.7-1.1-3-1.4-.9-6-1.4-8.1-.8zm52.2-6.8c-.5 1.1-1 3.1-1 4.5 0 2.2.4 2.6 3 2.6 3.3 0 3.8-1.7 2-6.4-1.1-3.1-2.5-3.3-4-.7zm429.1 270.6c-3.1 2.7-3.1 2.7-1.4 5.6 1 1.6 2.6 3.2 3.6 3.5 2.5.8 6.5-2.1 7.3-5.3 1.5-5.9-4.2-8.2-9.5-3.8zm12 13c-3.8 3.3-3.9 4.6-.2 8.7 2.9 3.2 3.1 3.2 5.7 1.8 1.5-.8 3.6-2.8 4.8-4.3 1.9-2.6 1.9-3 .5-5.5-2.1-3.8-6.7-4.1-10.8-.7zm-336.9 29.8c-2.3 2.3-4.2 4.8-4.2 5.5 0 1.7 6.8 4.8 7.9 3.6 1.3-1.3 2.6-13.4 1.4-13.4-.5 0-2.8 1.9-5.1 4.3z"/></svg>