<svg xmlns="http://www.w3.org/2000/svg" xmlns:xlink="http://www.w3.org/1999/xlink" viewBox="0 0 2500 2500" xmlns:v="https://vecta.io/nano"><defs><path id="A" d="M1250 0h0c690 0 1250 560 1250 1250h0c0 690-560 1250-1250 1250h0C560 2500 0 1940 0 1250h0C0 560 560 0 1250 0z"/></defs><clipPath id="B"><use xlink:href="#A"/></clipPath><g clip-path="url(#B)"><path d="M0 0l2500 2500m0-2500L0 2500" fill="none" stroke="#000" stroke-miterlimit="22.9256"/></g><linearGradient id="C" gradientUnits="userSpaceOnUse" x1="1250" y1="0" x2="1250" y2="2500"><stop offset="0" stop-color="#f89791"/><stop offset="1" stop-color="#f7c882"/></linearGradient><path d="M1250 0h0c690 0 1250 560 1250 1250h0c0 690-560 1250-1250 1250h0C560 2500 0 1940 0 1250h0C0 560 560 0 1250 0z" fill="url(#C)"/><defs><path id="D" d="M1249 1472l-557-318-15 23c-171 263-133 607 92 828 265 260 695 260 960 0 225-221 263-565 92-828l-15-23-557 318z"/></defs><clipPath id="E"><use xlink:href="#D"/></clipPath><g clip-path="url(#E)"><radialGradient id="F" cx="2752.449" cy="92.378" r="594" gradientTransform="matrix(-1.242690e-02 -1.5265 -1.8194 2.651850e-02 1449.9946 6295.9258)" gradientUnits="userSpaceOnUse"><stop offset="0" stop-color="#c5c6ab"/><stop offset="1" stop-color="#7985ab"/></radialGradient><circle cx="1249" cy="1541" r="679" fill-rule="evenodd" fill="url(#F)"/></g><radialGradient id="G" cx="1249" cy="1461.89" r="24" gradientTransform="matrix(1 0 0 -1 0 2497.8899)" gradientUnits="userSpaceOnUse"><stop offset="0" stop-color="#06f" stop-opacity="0"/><stop offset="1" stop-color="#00c2ff" stop-opacity=".4"/></radialGradient><path d="M1249 762l-480 274 480 274 480-274z" fill="url(#G)"/><radialGradient id="H" cx="1248.5" cy="1345.39" r="28.008" gradientTransform="matrix(1 0 0 -1 0 2497.8899)" gradientUnits="userSpaceOnUse"><stop offset="0" stop-color="#aee6f9" stop-opacity=".859"/><stop offset="1" stop-color="#c8d6dc"/></radialGradient><path d="M1250 833l-558 321 557 318 556-318z" fill="url(#H)"/><linearGradient id="I" gradientUnits="userSpaceOnUse" x1="1009" y1="250" x2="1009" y2="1250"><stop offset="0" stop-color="#77d4ff"/><stop offset="1" stop-color="#93d6f2" stop-opacity=".898"/></linearGradient><path d="M1249 300l-480 736 480 274z" fill="url(#I)"/><linearGradient id="J" gradientUnits="userSpaceOnUse" x1="1489" y1="250" x2="1489" y2="1250"><stop offset="0" stop-color="#506aac"/><stop offset="1" stop-color="#96cfef" stop-opacity=".82"/></linearGradient><path d="M1249 1310l480-274-480-736z" fill="url(#J)"/></svg>