<svg xmlns="http://www.w3.org/2000/svg" viewBox="0 0 18.6 26" xmlns:v="https://vecta.io/nano"><style><![CDATA[.D{enable-background:new}]]></style><g fill="#00a3ff"><path d="M1.7 11.7l-.2.3c-2.3 3.6-1.8 8.3 1.3 11.3C4.5 25.1 6.9 26 9.3 26L1.7 11.7z"/><path d="M9.3 16l-7.6-4.4L9.3 26V16z" opacity=".6" class="D"/><path d="M16.9 11.7l.2.3c2.3 3.6 1.8 8.3-1.3 11.3C14 25.1 11.7 26 9.3 26l7.6-14.3z" opacity=".6" class="D"/><path d="M9.3 16l7.6-4.4L9.3 26V16zm0-9.7v7.5l6.6-3.7-6.6-3.8z" opacity=".2" class="D"/><path d="M9.3,6.3l-6.6,3.8l6.6,3.7V6.3z" opacity=".6" class="D"/><path d="M9.3,0L2.7,10.1l6.6-3.8V0z"/><path d="M9.3,6.3l6.6,3.8L9.3,0V6.3z" opacity=".6" class="D"/></g></svg>