<svg xmlns="http://www.w3.org/2000/svg" width="3240" height="3238.667" viewBox="0 0 2430 2429" preserveAspectRatio="xMidYMid meet" xmlns:v="https://vecta.io/nano"><path d="M1198.5 2.9c-1.1.4-13.5 1.1-27.5 1.5-29.7.7-55.6 2.3-58.5 3.6-1.1.5-9 1.1-17.5 1.4-8.5.4-17.5 1.1-20 1.7-2.5.5-10.3 1.6-17.5 2.4-7.1.7-15.9 1.8-19.5 2.4l-16 2.7-19.2 2.9c-5.3.8-10.5 1.8-11.5 2.3s-4.7 1.3-8.3 1.7-9 1.4-12 2.2-8.6 2.1-12.5 2.9c-14.2 2.8-18.1 3.7-24.5 5.4-3.6 1-8.5 2.1-11 2.5-2.5.3-6.1 1.2-8 1.9-3.8 1.4-14 4.2-20.5 5.5-3.8.8-10 2.7-24.1 7.2-3.3 1-6.9 1.9-8 1.9-1 0-3.2.7-4.9 1.6-1.6.8-5.2 2-8 2.6-2.7.6-6.1 1.6-7.5 2.3s-4.4 1.7-6.5 2.1c-2.2.4-4.9 1.3-6 2-1.1.6-3.6 1.5-5.5 1.9s-4.6 1.3-6 2c-2.4 1.3-5.9 2.5-18.7 6.6-3.5 1.1-6.3 2.4-6.3 2.9 0 .6-1 1-2.2 1-1.3 0-3.5.6-4.9 1.4-1.4.7-3.9 1.6-5.5 2s-5.4 1.8-8.4 3.1-12.2 5.1-20.5 8.5l-19 8-10 4.5-11 5-9 3.9c-2.2.9-4.7 2.1-5.5 2.6-.8.6-2.6 1.5-4 2.1-2.8 1.1-11.7 5.5-14 6.9-.8.5-2.8 1.5-4.5 2.3-1.6.7-3.9 1.8-5 2.5-1.1.6-6.8 3.4-12.7 6.2-5.8 2.8-11.1 5.7-11.7 6.4-.7.8-2.4 1.7-3.9 2.1s-3.4 1.2-4.2 1.9-7.3 4.6-14.5 8.5c-18.3 10.2-18.4 10.2-24.5 14.1-3 1.9-6.2 3.8-7.2 4.2-.9.4-5.4 3.1-10.1 6.1-4.6 3-9.4 5.8-10.6 6.2-1.1.3-2.1 1.1-2.1 1.6s-1.6 1.7-3.5 2.6-3.5 2-3.5 2.5c0 .4-.5.8-1.1.8-.7 0-7.7 4.4-15.7 9.7l-17.6 11.8c-1.7 1-3.3 2.3-3.4 2.7-.2.4-.9.8-1.6.8s-2.8 1.4-4.7 3.1-5.9 4.6-8.9 6.6-7.5 5.2-10 7.2c-4.4 3.6-10.2 7.9-19 14.2-6.3 4.6-35.2 27.9-37 29.9-.8.9-3.1 2.7-5 4s-5.6 4.2-8.1 6.4c-2.5 2.3-6.4 5.7-8.6 7.6-4.2 3.6-19.6 17.5-31.5 28.4-7.8 7.1-50.6 49.9-60.1 60.1-3.6 3.8-10.7 11.7-15.8 17.5l-14 15.5c-4.5 4.7-16.8 19.6-26.9 32.6l-10.3 12.7c-3.1 3.8-5.7 7.3-5.7 7.7s-.9 1.7-2.1 2.9c-2.2 2.2-10.8 13.4-17.4 22.6-2.2 3-4.3 5.6-4.7 5.8-.5.2-.8.8-.8 1.3 0 .8-3.8 6.5-7.6 11.4-2.9 3.7-10.9 15.2-13.6 19.6-3.2 5.1-5 7.9-6.1 9.3-2.9 4-6 8.9-8.8 13.6-1.8 3-3.9 5.9-4.6 6.3s-1.3 1.3-1.3 1.9c0 1.3-8.6 15.5-11.2 18.4-1 1.1-1.8 2.8-1.8 3.7s-.4 1.9-1 2.2c-.5.3-3 4.3-5.5 8.8s-5.5 9.5-6.6 11.2c-1 1.6-2.8 4.8-3.9 7s-2.9 5.3-3.9 7c-1 1.6-4.5 7.9-7.6 14-3.2 6-6.6 12.1-7.6 13.4-1.1 1.3-1.9 3.2-1.9 4.2 0 .9-.6 2.4-1.3 3.1s-3.1 4.9-5.2 9.3-4.1 8.2-4.5 8.5-1.1 1.9-1.4 3.7c-.4 1.7-1.3 3.7-2.1 4.3-.7.6-1.6 2.6-1.9 4.5-.4 1.9-1 3.5-1.5 3.5-.4 0-1.3 1.8-2 4-.6 2.2-1.6 4-2.1 4-.6 0-1 .5-1 1.1 0 1.3-5.4 14-8.1 19-1 2.1-3 6.6-4.3 10a148.66 148.66 0 0 1-3.9 9.4c-.8 1.6-2.4 5.2-3.5 8l-4.6 11.1c-1.4 3.4-2.6 6.6-2.6 7.3 0 .6-.9 2.5-2 4.3s-2 4.1-2 5.1c0 .9-.9 3.4-2 5.4-1.1 2.1-2 4.6-2 5.5 0 1-.9 3.2-2 5s-2 4.1-2 5c0 1.6-2.3 8.1-7.1 19.8-1 2.5-2.1 6.2-2.4 8.2-.3 2.1-1 3.8-1.4 3.8-.5 0-1.4 2.6-2 5.7-.6 3.2-1.8 6.7-2.6 7.7-.8 1.1-1.5 3.2-1.5 4.7s-.5 4-1.2 5.6c-1.7 4.1-7.4 23.8-10.8 36.9-1 3.9-2.2 8-2.8 9-.5 1.1-1.3 4.1-1.7 6.9-.4 2.7-1.4 6.5-2.1 8.3s-1.6 5.7-2 8.5c-.4 2.9-1.2 6.6-1.9 8.3s-1.6 5.5-2 8.5-1.3 7-2.1 8.9c-.7 1.9-1.8 7.1-2.5 11.5-.6 4.4-1.5 8.8-2.1 9.8-.5.9-1.3 5.6-1.9 10.3-.5 4.8-1.4 9.4-1.9 10.4-.6 1.1-1.5 5.4-2 9.7-.6 4.3-1.7 10.9-2.6 14.8-.8 3.8-1.9 10.8-2.4 15.5s-1.6 13.2-2.4 19c-3.1 21.5-3.6 25.8-4.6 37.5l-2.5 29c-2.2 24.1-3.5 60.9-3.5 97 0 33.6 1.5 79.5 3.1 91.5.5 4.1 1.4 14.5 2 23 .5 8.5 1.7 18.6 2.5 22.5.7 3.8 1.4 9.7 1.5 13 0 3.3.4 8.2.8 11 .5 2.7 1.6 10.4 2.5 17 1 6.6 2.6 16.4 3.7 21.7 1 5.3 1.9 11.2 1.9 13.1s.7 5.4 1.5 7.8c.9 2.4 2.2 8.4 3 13.4 2 12.5 4.4 24.4 5.7 28 .5 1.6 1.4 5.7 1.9 9.1.4 3.3 1.4 7.8 2.3 10 .8 2.1 1.7 6.1 2.1 8.9.4 2.7 1.3 6.5 2.1 8.4.8 1.8 1.4 4.2 1.4 5.2s.9 4.7 2 8.1c1.1 3.5 2.7 9 3.5 12.3 4.9 18.2 5.7 21.1 6.5 22 .5.6 1.2 3.1 1.6 5.5.4 2.5 1.1 5 1.5 5.6.5.6 1.4 3.7 2 6.9s1.6 6.8 2.4 7.9c.7 1.2 1.6 3.9 2 6.1.3 2.2 1.3 5 2.1 6.2s1.9 4.5 2.5 7.2 1.7 5.5 2.5 6.2c.8.6 1.4 2.4 1.4 4s.9 4.3 2 6.1 2 4.4 2 5.8.7 3.5 1.5 4.8c.9 1.2 2.2 4.1 3 6.4 3.1 9.7 5.5 16.1 6.4 17.2.4.6 1.1 2.4 1.5 4.1.4 1.6 1.3 4.3 2.1 6 3.4 7.4 6.5 14.4 6.5 15.2.1.4.9 2.6 2 4.8s1.9 4.7 2 5.5c0 .9.6 2.4 1.4 3.5.7 1.1 3.1 6 5.2 11 2.1 4.9 4.4 9.6 5.1 10.3s1.3 2 1.3 2.9c0 .8.7 2.7 1.5 4.1.8 1.5 3.3 6.7 5.6 11.7 7.4 16.2 15.6 32.3 19 37.5.8 1.4 2.1 4.2 2.8 6.2.7 2.1 1.6 3.8 2.1 3.8s1.2 1 1.6 2.2c.6 2 11.5 22.2 14.4 26.8.5.8 1.6 2.8 2.3 4.5.8 1.6 2.1 3.6 3 4.4 1 .7 1.7 2.1 1.7 3.1s.7 2.3 1.6 3c.8.8 2.2 2.7 2.9 4.4.8 1.7 2 4 2.7 5.1 2.5 4 4.3 6.9 6.1 9.4.9 1.4 2.4 4 3.2 5.7s2.9 5.1 4.7 7.5 3.9 5.5 4.6 6.9c2.2 4.2 3.8 6.9 5.4 8.7.8 1 2.9 4.2 4.7 7.1 1.8 3 3.6 5.9 4.2 6.5.5.7 2.3 3.2 3.9 5.7l7.5 11 9.1 13c2.4 3.6 5.9 8.3 7.7 10.6s3.9 5.1 4.7 6.4 2.2 3.1 3 4c2.4 2.6 7.4 9.2 9.5 12.5 1 1.6 2.9 4.1 4.2 5.5s6 7.2 10.4 13c4.5 5.8 9.1 11.5 10.3 12.6 1.1 1.2 3.2 3.6 4.6 5.4 5.4 7.1 24.2 28.8 28.5 33 1.4 1.3 2.5 2.8 2.5 3.2 0 1.3 11.5 13.2 46.2 47.7l43.3 42.1c4.8 4.1 9.9 8.6 11.3 10 1.5 1.4 5.4 4.7 8.7 7.5 3.3 2.7 6.2 5.3 6.5 5.6.6.8 20.5 17 34 27.8 5.8 4.6 11 9 11.6 9.7.6.8 1.8 1.4 2.6 1.4s2.5 1.1 3.8 2.5c2.6 2.8 22 17 41 30.1l17.7 12.4c.7.5 1.5 1 1.8 1 .9 0 17 11.3 17.3 12.2.2.5 1.2.8 2.3.8s2.7.9 3.7 2.1c.9 1.1 2.6 2.5 3.7 3 1.1.6 2.9 1.5 4 2.2s5.2 3.1 9.2 5.5c3.9 2.3 7.8 4.8 8.5 5.6.8.7 3.1 1.9 5.1 2.5 2.1.7 4.1 1.9 4.4 2.7s1 1.4 1.5 1.4c1.2 0 19 10 19.8 11.1.3.3 1.6 1 3 1.4s3.4 1.5 4.5 2.5 3.2 2.2 4.8 2.5c1.5.4 2.7 1.1 2.7 1.5s1.7 1.5 3.8 2.4c2 .9 4.4 2.1 5.2 2.6.8.6 2.6 1.5 4 2.1 1.4.5 4.3 2.1 6.5 3.4 2.2 1.4 5.1 2.9 6.5 3.5 1.4.5 3.2 1.5 4 2 .8.6 2.2 1.3 3 1.6 2.6 1.2 32.2 15.4 39.4 19 3.7 1.9 7.5 3.4 8.4 3.4.8 0 2.3.6 3.1 1.3.9.8 3.2 2 5.1 2.7s5.4 2.1 7.7 3.1l9 4c2.7 1.1 5.9 2.6 7.3 3.4 1.4.7 4.1 1.6 6 2s4.2 1.3 5 2 3.4 1.8 5.7 2.4c2.3.7 4.5 1.6 4.8 2.1.3.6 1.5 1 2.6 1s4.2 1.1 6.9 2.5 5.4 2.5 6.1 2.5c.6 0 2.5.6 4.2 1.4l6.2 2.4c1.7.6 3.9 1.3 5 1.8 12.2 4.4 15.7 5.7 20.2 6.8 2.9.7 5.8 1.8 6.5 2.3.7.6 2.8 1.3 4.6 1.7 1.9.3 4.8 1.2 6.5 1.9 4.9 2 18.8 6.5 22.7 7.2 1.9.4 4 1.1 4.5 1.5.6.4 3.7 1.3 7 2s6.5 1.6 7 2c.6.4 3.9 1.5 7.5 2.4 14.6 3.5 19.7 4.9 22.8 6.3 1.9.7 6.1 1.6 9.5 2 3.4.3 7.1 1.2 8.2 1.9 1.2.8 5 1.8 8.7 2.3 3.6.5 7.4 1.4 8.4 1.9 1.1.5 4.2 1.3 6.9 1.6 2.8.4 7.6 1.4 10.7 2.2 8 2 26.8 5.4 36.3 6.6 4.4.5 8.4 1.3 9 1.8.5.4 5.5 1.3 11 2 5.5.6 12.5 1.8 15.5 2.5 3 .8 9.8 1.7 15 2.1 5.2.3 12.7 1.3 16.5 2.1 3.9.8 13.8 1.8 22 2.4 8.3.5 17.3 1.3 20 1.8 2.8.5 16.9 1.4 31.5 2.1 14.6.6 28.1 1.7 30 2.3 8.1 2.7 134.2-1.3 163-5.2 4.1-.5 13.1-1.5 19.9-2.1 6.8-.5 12.9-1.4 13.5-1.9s6.2-1.2 12.5-1.6 13-1.3 15-2c2-.6 7.9-1.5 13.1-2 5.2-.4 11-1.3 13-2 1.9-.7 7.9-1.8 13.2-2.4s10.7-1.6 12-2.1c1.3-.6 6.1-1.7 10.8-2.5 13.9-2.4 24.4-4.4 26-5.1 1.5-.7 15.6-4 29.4-6.9 3.8-.8 7.4-1.9 8-2.5.5-.5 2.2-1 3.7-1s6.3-1.1 10.6-2.4c7.5-2.2 9.8-2.9 22.3-6.2 3-.8 6.2-1.9 7.1-2.4s3.4-1.2 5.5-1.6c2.2-.4 5.1-1.3 6.6-2 1.5-.8 5.1-1.9 8-2.5s6.3-1.7 7.5-2.5 3.5-1.4 5-1.4 4.2-.9 6-1.9c1.7-1.1 4.9-2.3 7-2.7 2.1-.3 4.7-1.2 5.8-1.9s3.6-1.6 5.5-2 4.4-1.2 5.5-1.9 4-1.8 6.5-2.5c2.5-.8 6.3-2.2 8.6-3.2 2.2-1.1 5-1.9 6.2-1.9 1.1 0 2.4-.4 2.7-1 .3-.5 2.5-1.4 4.8-2.1 2.3-.6 4.9-1.7 5.7-2.4s3.1-1.6 5-2 5.1-1.6 7-2.6c1.9-1.1 4.3-1.9 5.2-1.9 1 0 1.8-.4 1.8-1 0-.5 1.9-1.4 4.2-2.1 2.3-.6 5.8-1.9 7.8-2.9 6.5-3.4 12.7-6 14-6 .8 0 2.1-.6 2.9-1.4.9-.7 4-2.1 6.9-3.2 2.8-1 5.2-2.1 5.2-2.5s1.4-1.1 3.2-1.4c1.8-.4 5.6-2 8.5-3.6l7-3.8c1-.5 4.1-2 6.8-3.2 10.6-4.6 21.3-10.2 25.4-13.2 1.3-.9 3.1-1.7 4.1-1.7s2.9-.9 4.3-2 3.2-2 4-2c.7 0 2.2-.9 3.2-2s2.4-2 3.2-2c1.6 0 12-5.8 12.9-7.1.3-.5 1.3-.9 2.3-.9s2.6-.9 3.6-2 2.6-2 3.6-2 3.1-1.1 4.7-2.5c1.7-1.4 3.7-2.5 4.6-2.5s1.9-.7 2.2-1.5c.4-.8 1.2-1.5 1.8-1.5.7 0 4.6-2.1 8.7-4.8l9.4-5.9c1.1-.7 3.4-2 5-2.8 4-2.1 6.4-3.5 10.2-6.3 1.7-1.2 3.4-2.2 3.7-2.2.4 0 1.2-.5 1.9-1 2.5-2.1 8.3-6 10.2-6.9 1.2-.5 4.2-2.5 6.8-4.5s5.1-3.6 5.6-3.6c.4 0 1.6-.9 2.6-2s2.3-2 3-2c.6 0 2-.9 3.2-1.9 1.1-1 3.3-2.6 5-3.4 1.6-.9 4.9-3.2 7.2-5.1 2.4-2 4.9-3.6 5.6-3.6s1.5-.7 1.9-1.5c.3-.8 1-1.5 1.6-1.5s3.2-1.7 5.8-3.8c2.6-2 5.5-4.2 6.4-4.7.9-.6 7.7-5.6 15.1-11.2 7.4-5.7 13.9-10.3 14.6-10.3.6 0 1.1-.7 1.1-1.5 0-.9 1-2 2.3-2.4 1.2-.5 5.6-3.8 9.7-7.3l9-7.5c.8-.7 4.2-3.4 7.5-5.9 3.3-2.6 6.4-5.3 6.8-6.1.4-.7 1.4-1.3 2.2-1.3.7 0 1.5-.4 1.7-1 .5-1.5 13.2-12 14.6-12 .6 0 1.2-.6 1.2-1.4 0-.7 1.1-2.1 2.3-2.9 1.3-.9 3.7-2.8 5.3-4.4s7-6.6 11.9-11.2c16.3-15 31.4-29.5 38.8-37l35.8-37.5 10.1-10.6c2-2.1 6.9-7.8 10.8-12.7l13.3-15.7c3.4-3.7 6.9-7.7 7.7-8.8 4.9-6.5 11.6-14.6 13.7-16.4 1.2-1.2 2.3-2.4 2.3-2.8 0-.8 10.2-14.6 13.3-18 1.2-1.3 2.9-3.4 3.7-4.7.8-1.2 2.7-3.7 4.3-5.4 1.5-1.8 2.7-3.6 2.7-4s1.7-2.8 3.8-5.4c2.1-2.5 5.1-6.6 6.7-9.1s5.2-7.5 8-11.2c4.2-5.6 8.2-11.5 14-20.7l4-6c1.7-2.4 3.4-5.1 4-6 .5-.9 2-3 3.2-4.8 1.3-1.7 2.3-3.4 2.3-3.7 0-.4 1.5-2.8 3.3-5.4s4.8-7.4 6.7-10.7c1.8-3.3 4-6.4 4.7-6.8s1.3-1.2 1.3-1.6 2.5-4.8 5.5-9.7 5.8-9.6 6.1-10.4c.7-1.8 1.1-2.7 8.5-15.5 6.2-10.8 13.4-24.2 19.8-37.2 2.3-4.5 4.6-8.5 5.1-8.8.6-.3 1-1.4 1-2.4s.9-2.9 1.9-4.3c1.1-1.3 2.3-3.6 2.6-5.1.4-1.4 1.3-3.1 2-3.7.8-.6 1.7-2.4 2-4s1.3-3.4 2.1-4.1c.8-.6 1.4-2.2 1.4-3.4s.9-3.4 2-4.8 2-3.2 2-4 .9-2.6 2-4 2-3.1 2-3.9c0-1.3 1.1-3.9 7.6-17.3 1.3-2.8 2.4-5.4 2.4-5.9 0-.6.9-2.9 2-5.3l4-8.6c1.1-2.4 2-5 2-5.8s.7-2.3 1.5-3.3c.8-1.1 1.5-2.6 1.5-3.3s1.1-3.7 2.5-6.7 2.5-5.8 2.5-6.1c0-.4.6-2.1 1.3-3.8 3.6-8.4 6-14.5 6.9-17.7.5-1.9 1.8-5.3 2.9-7.6 1-2.2 1.9-4.9 1.9-6s.5-2.5 1.1-3.1c.5-.5 1.6-3.2 2.4-5.9 1.7-6.2 4.4-14 6.1-17.9.7-1.7 1.8-5.5 2.5-8.5.6-3 1.5-6 2-6.6.8-1 1.8-4.4 5.8-18.9.9-3.3 1.9-6.5 2.3-7 .3-.6 1.2-3.9 1.8-7.5s1.6-7 2.1-7.6c.5-.7 1.4-4 2-7.5s1.8-7.4 2.5-8.6c.8-1.3 1.7-4.4 2-7 .3-2.7 1.4-7.5 2.4-10.8s2.1-8.2 2.5-10.8c.3-2.6 1.2-6.2 1.9-8 .8-1.8 1.6-5.8 2-9 .3-3.2 1.2-7.1 2-8.5.7-1.5 1.6-5.8 2-9.5.4-3.8 1.3-8.7 2.1-11s1.7-7.8 2.1-12.2 1.2-9.1 1.9-10.5 1.6-6.8 2-12 1.2-10.4 1.7-11.4c.6-1.1 1.7-8.1 2.4-15.5.8-7.4 1.8-14.9 2.3-16.5.5-1.7 1.5-10.5 2.1-19.6.7-9.1 1.4-16.9 1.7-17.3 1.2-2 2.3-15.1 2.9-34.7.4-15.9.9-22.1 2-23.7 1.1-1.8 1.4-9.6 1.3-43.5 0-22.7-.5-48.5-1-57.3l-1.8-33c-1.2-25.2-2-36.2-3.1-40.8-.5-2.3-1.4-10.1-2-17.2-1-12.4-1.9-19.8-5.6-43.5l-2.5-19c-.5-4.7-1.6-10.8-2.4-13.5-.7-2.8-1.7-7.9-2-11.5-.4-3.6-1.2-8.1-2-10-.7-1.9-1.8-7.3-2.5-12-.6-4.6-1.6-9.3-2.1-10.2-.5-1-1.2-4.8-1.6-8.6-.3-3.7-1.1-7.6-1.8-8.7s-1.6-4.8-2-8.2c-.4-3.3-1.3-7.3-2-8.7-.8-1.5-1.9-5.5-2.5-8.9s-1.7-8.2-2.5-10.7c-1.7-5.6-4.2-14.8-6-22-1.4-5.3-2.3-8.6-6.6-21.5-1-3.3-1.9-6.9-1.9-8s-.7-3.4-1.6-5a40.96 40.96 0 0 1-2.4-7c-.5-2.2-2.3-7.8-4-12.5s-3.6-10.3-4.1-12.5c-.6-2.2-1.7-5-2.5-6.2s-1.4-3.1-1.4-4.2c0-1-1.1-4.3-2.5-7.3-1.4-2.9-2.8-6.8-3.1-8.6-.3-1.7-1-3.2-1.4-3.2s-1.3-2.3-2-5c-.7-2.8-1.6-5.2-2-5.5s-1.3-2.7-2-5.5c-.7-2.7-1.6-5-2-5s-1.3-2.1-1.9-4.6c-.7-2.5-1.8-5.6-2.5-6.7-.8-1.2-1.7-3.7-2.1-5.5-.4-1.7-1.1-3.2-1.5-3.2-.5 0-1.5-1.9-2.1-4.3-.7-2.3-1.8-4.9-2.6-5.8-.7-.8-1.6-3.1-1.9-5-.4-1.9-1.3-4.1-2-4.9s-1.6-2.9-2-4.5c-.4-1.7-1.5-4.1-2.6-5.4-1-1.3-1.8-3-1.8-3.8s-1.1-3.3-2.4-5.6-3.4-6.9-4.7-10.2c-1.3-3.2-3.6-8.2-5.1-11-1.5-2.7-3.3-6.1-3.9-7.5s-1.5-3.2-1.9-4c-.5-.8-3.8-7.4-7.5-14.5-3.6-7.2-8.6-16.6-11-21l-5.1-9.5c-2-4.2-21.8-38.5-26.3-45.5-2.8-4.4-5.7-9.1-6.4-10.5-2.5-4.9-27.7-42.8-34.4-51.7-2.4-3.1-4.3-6-4.3-6.5s-2.6-4.3-5.7-8.5c-3.2-4.2-6.3-8.5-6.9-9.5-.7-1.1-3.7-5.2-6.8-9.1l-9.9-12.8c-7.3-9.9-16-20.9-20.8-26.2-2.5-2.9-5.6-6.8-6.9-8.7-2.4-3.6-3.3-4.7-8.6-10.2-1.7-1.8-6.2-6.9-9.9-11.3-12.8-15.1-15.7-18.4-20.3-23.2l-17.2-18.2c-12.5-13.2-25.4-26.1-49-48.6l-13-12.5c-.3-.3-3.9-3.4-8-7l-13-11.3c-20.4-18.1-20.9-18.5-26-21.9-2.5-1.7-5-3.7-5.6-4.4s-6.2-5.4-12.5-10.4l-13.6-10.9c-1.3-1.1-4-2.9-6-4.2-2.1-1.3-6-4.2-8.8-6.5-5.3-4.4-10.5-8.2-19.5-14.1-3-2-6-4.2-6.6-4.8-.7-.6-4.5-3.4-8.5-6.1-4.1-2.7-7.8-5.4-8.4-6-.5-.6-3.5-2.6-6.5-4.5-3-1.8-5.9-3.7-6.5-4.1-2.7-2.1-8.7-5.8-9.4-5.8-.5 0-1.4-.7-2.2-1.6-.7-.8-2.9-2.4-4.8-3.5-2-1.1-4.9-2.8-6.6-3.9-1.6-1.1-4.6-2.9-6.5-4s-5.3-3.2-7.5-4.5-4.7-2.7-5.5-3.1-4-2.5-7.2-4.6c-3.1-2.1-6.1-3.8-6.5-3.8s-3.4-1.8-6.6-4c-3.1-2.2-6.3-4-7.1-4-.7 0-2.4-.9-3.7-1.9-1.4-1-4-2.6-5.9-3.5s-5.3-2.7-7.5-4c-5.1-3.1-16.1-8.8-29.5-15.5l-12-6.1c-4.3-2.5-29.8-14.7-38.5-18.4l-15.7-7c-3.1-1.4-6.2-2.6-6.8-2.6s-2.8-.9-4.8-2c-4.5-2.4-11.4-5.3-16.4-6.9-2.1-.7-4-1.7-4.3-2.2-.4-.5-1.4-.9-2.3-.9-1 0-3.5-.9-5.6-1.9-2.1-1.1-5.2-2.3-6.9-2.6-1.8-.4-4.6-1.6-6.3-2.6s-4-1.9-5.1-1.9c-1 0-3.6-.9-5.8-2s-4.6-2-5.5-2c-.8 0-2.8-.9-4.5-2-1.6-1.1-4.1-2-5.5-2s-3.8-.7-5.4-1.5-5.3-2.2-8.2-3.1c-3-.8-5.6-2-5.9-2.5-.4-.5-1.8-.9-3.3-.9-1.5-.1-4.5-.8-6.7-1.6s-6.5-2.1-9.5-2.9c-3-.7-5.6-1.8-5.8-2.4s-1.6-1.1-3-1.1c-1.5 0-5.8-1.1-9.6-2.5-3.8-1.3-8.9-2.7-11.3-3.1-2.4-.3-4.3-1-4.3-1.4s-2.1-1.1-4.7-1.5c-2.7-.4-7.3-1.5-10.3-2.5-3-1.1-7.7-2.2-10.5-2.6-2.7-.4-5.9-1.3-7-1.9-1.1-.7-4.2-1.6-7-2-2.7-.4-6.4-1.3-8.2-2-1.7-.7-5.8-1.7-9-2-3.2-.4-7.4-1.4-9.3-2.1s-7.1-1.8-11.4-2.4c-4.4-.6-8.4-1.4-9-1.9s-5.1-1.4-10.1-2.1c-4.9-.7-9.4-1.6-10-2-.5-.4-5.3-1.3-10.5-2s-11.9-1.9-14.8-2.6-9.2-1.6-14-2-9.1-1-9.7-1.4c-.5-.5-6.4-1.3-13-2-6.6-.6-14.5-1.6-17.5-2.1-3-.6-10.7-1.4-17-2l-26-2.4c-8-.8-26-1.9-40-2.5l-36-1.5c-22.4-1.1-42.6-1.4-44.5-.6zm632.8 625.4c.9 1.7 1.1 44 .7 205.9l-1.3 204.5c-.5.4-92.1.9-203.5 1.1l-203.9 1.9c-1 1.3-1.3 86-1.3 415.6l-1.7 415.3c-1.5 1.1-37.3 1.3-203 1.4-209.4 0-204.7.1-208-4-1-1.2-1.2-94-1.2-427l1.5-435.5c.8-5.5 1.9-15.6 2.4-22.5s1.5-14.3 2.3-16.5 1.7-7.1 2.1-10.9 1.3-8 2-9.5c.7-1.4 1.7-5.5 2-9.1.4-3.6 1.3-7.2 2.1-8 .7-.8 1.6-3.7 2-6.5.4-2.7 1.3-6.2 2.1-7.6.7-1.5 1.6-4.6 2-6.9s1.2-4.7 1.9-5.3c.6-.7 1.5-3 1.9-5.2s1.3-4.9 2-6 1.6-3.4 2-5c.4-1.7 1.7-5 2.8-7.5l3.8-8.5c3.3-7.4 17.1-35 19.1-38 1-1.7 2.6-4.5 3.5-6.4.8-1.8 1.9-3.8 2.5-4.5.5-.6 2.8-4.1 5.2-7.7l5.5-8.5c.7-1 2.2-3.4 3.3-5.2 1.2-1.7 2.5-3.2 3-3.2s.9-.6.9-1.3c0-.6 2.2-4 4.8-7.3 13.3-17.2 21.5-26.6 36.4-41.5 18.4-18.6 21.3-21.2 35.3-32.4l8.8-7.2c2.7-2.3 6.4-4.9 8.2-5.8 1.9-.8 3.5-1.9 3.7-2.3.4-1.1 20.5-14.1 23.4-15.2 1.3-.5 2.4-1.4 2.4-1.9s1.5-1.5 3.4-2.1 3.6-1.4 3.8-1.8c.2-.6 5.2-3.3 16.8-9.1.8-.4 2.6-1.4 4-2.1 2.5-1.3 8.5-4.3 19.1-9.3 3.1-1.5 6.2-2.7 7-2.7s2.5-.9 3.9-2 3.6-2 4.8-2c1.3 0 3.6-.7 5-1.5 3.7-2 13.7-5.4 19.6-6.6 2.7-.6 5.8-1.6 7-2.4 1.2-.7 4.1-1.6 6.6-1.9 2.4-.4 4.9-1.1 5.5-1.6.7-.6 4.6-1.5 8.8-2 4.2-.6 10.2-2 13.4-3.1 3.1-1 8.2-1.9 11.3-1.9s6.1-.5 6.6-1c1.2-1.2 11.1-2.4 34.4-4.2 18-1.3 435.4-2.8 438.3-1.5.9.4 2.3 1.8 3 3zm-819.8-1.7c1.4 1.4 1.5 3.8 1.2 16.8-.4 16.3-4 50.4-5.6 53.3-.5 1.1-1.4 6-2 11-.5 5.1-1.7 10.5-2.5 12.2-.9 1.6-1.6 4.8-1.6 7.1 0 2.2-.9 5.8-2 8s-2 5-2 6.2c0 3.2-7.7 26.5-10.6 32-.8 1.4-1.4 3.2-1.4 4 0 .7-1.1 3.5-2.5 6.3-1.3 2.7-2.5 5.5-2.5 6 0 .6-2 5.2-4.5 10.3-2.5 5-4.5 9.8-4.5 10.5s-.5 1.8-1.1 2.4c-1.2 1.2-4 6.1-6.9 12.2-2.1 4.4-9 16.2-10.1 17.1-.3.3-2 3-3.7 6-4.4 7.5-5.6 9.4-6.2 10-.9.9-7 9.4-9.8 13.7-1.5 2.3-4.5 6.3-6.7 8.8-2.2 2.6-4.4 5.5-4.9 6.4-.6.9-6.2 7.4-12.7 14.6-14.2 15.8-32.4 33.4-43.4 42-2.1 1.6-4.8 3.9-5.9 5.1-2 2-16.3 12.8-19.7 14.9-.9.5-4.4 3-7.9 5.5-7.3 5.3-12.3 8.4-16.8 10.5-1.8.9-3.5 2.2-3.9 3-.3.8-1.4 1.5-2.4 1.5-1.1 0-3.3.9-4.9 2l-6 4c-1.6 1.1-3.3 2-3.8 2s-2 .9-3.3 1.9c-1.4 1-5.4 3.1-8.9 4.5-6.8 2.8-13 5.6-19.2 8.7-2 1.1-4.6 1.9-5.7 1.9s-2.7.7-3.6 1.6-3.7 2.1-6.2 2.5c-2.6.5-5.4 1.5-6.2 2.3-.9.7-3.4 1.7-5.6 2-2.2.4-4.9 1.3-6 2-1.1.8-4.1 1.7-6.5 2.1-2.5.4-5.8 1.3-7.5 2.1-1.6.8-5.4 1.8-8.3 2.4-2.9.5-6.2 1.4-7.2 2-1.1.6-5.7 1.5-10.2 2s-8.4 1.4-8.7 1.9-5.5 1.4-11.5 2.1c-6 .6-11.9 1.6-13 2.3-1.3.7-10.2 1.5-22.6 1.9l-26 1.3c-3 .3-6.2.1-7-.4-1.3-.9-1.5-25-1.8-205l.8-206.5 1-2.6h204.4l206.1 1.6z"/></svg>