<?xml version="1.0" encoding="UTF-8"?>
<!DOCTYPE svg PUBLIC "-//W3C//DTD SVG 1.1//EN" "http://www.w3.org/Graphics/SVG/1.1/DTD/svg11.dtd">
<svg xmlns="http://www.w3.org/2000/svg" version="1.1" width="314px" height="314px" style="shape-rendering:geometricPrecision; text-rendering:geometricPrecision; image-rendering:optimizeQuality; fill-rule:evenodd; clip-rule:evenodd" xmlns:xlink="http://www.w3.org/1999/xlink">
<g><path style="opacity:0.996" fill="#071926" d="M 138.5,-0.5 C 150.167,-0.5 161.833,-0.5 173.5,-0.5C 237.161,8.985 280.995,43.6517 305,103.5C 308.681,115.096 311.514,126.763 313.5,138.5C 313.5,150.167 313.5,161.833 313.5,173.5C 304.015,237.161 269.348,280.995 209.5,305C 197.904,308.681 186.237,311.514 174.5,313.5C 162.833,313.5 151.167,313.5 139.5,313.5C 75.8387,304.015 32.0053,269.348 8,209.5C 4.31949,197.904 1.48616,186.237 -0.5,174.5C -0.5,162.833 -0.5,151.167 -0.5,139.5C 8.985,75.8387 43.6517,32.0053 103.5,8C 115.096,4.31949 126.763,1.48616 138.5,-0.5 Z"/></g>
<g><path style="opacity:1" fill="#69d202" d="M 218.5,37.5 C 217.374,39.4525 215.708,40.9525 213.5,42C 214.167,42.3333 214.833,42.6667 215.5,43C 213.333,43.8333 211.833,45.3333 211,47.5C 209.16,46.1669 208.66,46.3335 209.5,48C 208.756,49.0386 207.756,49.5386 206.5,49.5C 152.629,28.391 105.795,38.7243 66,80.5C 40.0309,113.623 32.5309,150.623 43.5,191.5C 42.7611,191.369 42.0944,191.536 41.5,192C 42.4506,192.718 42.6172,193.551 42,194.5C 41.0853,193.672 40.4186,192.672 40,191.5C 37.6837,192.522 37.1837,194.022 38.5,196C 37.5305,197.758 36.3639,198.258 35,197.5C 33.5557,199.155 31.7224,199.822 29.5,199.5C 12.8262,142.696 26.1595,94.1956 69.5,54C 115.748,18.3449 165.415,12.8449 218.5,37.5 Z"/></g>
<g><path style="opacity:1" fill="#071926" d="M 206.5,49.5 C 232.216,62.2165 251.216,81.5498 263.5,107.5C 278.021,140.43 278.021,173.43 263.5,206.5C 234.734,259.381 190.4,281.048 130.5,271.5C 105.15,265.496 83.8162,252.829 66.5,233.5C 56.7404,220.648 49.0737,206.648 43.5,191.5C 32.5309,150.623 40.0309,113.623 66,80.5C 105.795,38.7243 152.629,28.391 206.5,49.5 Z"/></g>
<g><path style="opacity:1" fill="#62c402" d="M 218.5,37.5 C 244.296,51.2956 263.63,71.2956 276.5,97.5C 276.489,99.0174 275.823,100.184 274.5,101C 274.833,101.333 275.167,101.667 275.5,102C 274.216,102.684 273.049,102.517 272,101.5C 271.544,102.744 272.044,103.577 273.5,104C 271.479,104.513 269.979,105.68 269,107.5C 267.224,106.464 265.391,106.464 263.5,107.5C 251.216,81.5498 232.216,62.2165 206.5,49.5C 207.756,49.5386 208.756,49.0386 209.5,48C 208.66,46.3335 209.16,46.1669 211,47.5C 211.833,45.3333 213.333,43.8333 215.5,43C 214.833,42.6667 214.167,42.3333 213.5,42C 215.708,40.9525 217.374,39.4525 218.5,37.5 Z"/></g>
<g><path style="opacity:1" fill="#67cf01" d="M 171.5,70.5 C 171.667,86.8367 171.5,103.17 171,119.5C 170.085,120.328 169.419,121.328 169,122.5C 168.667,121.833 168.333,121.167 168,120.5C 165.899,121.924 163.733,123.258 161.5,124.5C 161.167,123.833 160.833,123.167 160.5,122.5C 159.528,124.636 157.861,125.803 155.5,126C 155.833,126.333 156.167,126.667 156.5,127C 155.451,127.492 154.451,127.326 153.5,126.5C 152.15,128.735 150.65,130.068 149,130.5C 148.667,129.833 148.333,129.167 148,128.5C 145.304,132.214 142.138,133.214 138.5,131.5C 137.833,132.5 137.167,133.5 136.5,134.5C 135.914,134.291 135.414,133.957 135,133.5C 131.078,136.219 127.411,138.553 124,140.5C 122.883,140.736 121.716,140.736 120.5,140.5C 136.086,116.332 152.419,92.6651 169.5,69.5C 170.183,69.8627 170.85,70.1961 171.5,70.5 Z"/></g>
<g><path style="opacity:1" fill="#64c900" d="M 171.5,70.5 C 172.498,93.9941 172.831,117.661 172.5,141.5C 180.167,141.5 187.833,141.5 195.5,141.5C 194.933,143.03 194.267,144.53 193.5,146C 193.833,146.333 194.167,146.667 194.5,147C 193.256,147.456 192.423,146.956 192,145.5C 190.846,147.957 189.512,147.957 188,145.5C 187.147,147.125 186.147,147.458 185,146.5C 184.5,147 184,147.5 183.5,148C 183.833,149 184.167,150 184.5,151C 182.536,152.794 181.036,152.294 180,149.5C 178.857,152.915 177.19,153.249 175,150.5C 173.386,152.878 171.719,155.211 170,157.5C 167.87,153.745 165.87,153.745 164,157.5C 163.549,155.071 162.715,154.904 161.5,157C 162.28,158.073 162.113,159.24 161,160.5C 159.667,159.833 158.667,158.833 158,157.5C 157.781,158.938 157.281,160.271 156.5,161.5C 152.922,161.322 149.089,161.322 145,161.5C 144.517,162.448 144.351,163.448 144.5,164.5C 142.8,164.626 141.3,165.293 140,166.5C 138.739,166.241 137.739,165.574 137,164.5C 138.26,167.155 137.426,168.988 134.5,170C 123.505,170.5 112.505,170.667 101.5,170.5C 100.427,169.749 100.26,168.749 101,167.5C 107.363,158.319 113.863,149.319 120.5,140.5C 121.716,140.736 122.883,140.736 124,140.5C 127.411,138.553 131.078,136.219 135,133.5C 135.414,133.957 135.914,134.291 136.5,134.5C 137.167,133.5 137.833,132.5 138.5,131.5C 142.138,133.214 145.304,132.214 148,128.5C 148.333,129.167 148.667,129.833 149,130.5C 150.65,130.068 152.15,128.735 153.5,126.5C 154.451,127.326 155.451,127.492 156.5,127C 156.167,126.667 155.833,126.333 155.5,126C 157.861,125.803 159.528,124.636 160.5,122.5C 160.833,123.167 161.167,123.833 161.5,124.5C 163.733,123.258 165.899,121.924 168,120.5C 168.333,121.167 168.667,121.833 169,122.5C 169.419,121.328 170.085,120.328 171,119.5C 171.5,103.17 171.667,86.8367 171.5,70.5 Z"/></g>
<g><path style="opacity:1" fill="#61c300" d="M 195.5,141.5 C 200.844,141.334 206.177,141.501 211.5,142C 212.022,142.561 212.355,143.228 212.5,144C 206.352,153.643 200.019,163.143 193.5,172.5C 192.213,171.232 191.213,171.565 190.5,173.5C 189.808,172.975 189.308,172.308 189,171.5C 187.655,174.262 185.655,175.262 183,174.5C 181.087,177.122 178.754,178.122 176,177.5C 175.072,179.335 173.906,179.668 172.5,178.5C 170.889,180.535 169.056,181.202 167,180.5C 164.818,181.93 162.651,183.43 160.5,185C 156.861,184.623 153.528,185.789 150.5,188.5C 148.844,186.978 147.677,187.311 147,189.5C 144.426,188.08 142.593,188.747 141.5,191.5C 141.5,184.833 141.5,178.167 141.5,171.5C 127.99,171.829 114.656,171.496 101.5,170.5C 112.505,170.667 123.505,170.5 134.5,170C 137.426,168.988 138.26,167.155 137,164.5C 137.739,165.574 138.739,166.241 140,166.5C 141.3,165.293 142.8,164.626 144.5,164.5C 144.351,163.448 144.517,162.448 145,161.5C 149.089,161.322 152.922,161.322 156.5,161.5C 157.281,160.271 157.781,158.938 158,157.5C 158.667,158.833 159.667,159.833 161,160.5C 162.113,159.24 162.28,158.073 161.5,157C 162.715,154.904 163.549,155.071 164,157.5C 165.87,153.745 167.87,153.745 170,157.5C 171.719,155.211 173.386,152.878 175,150.5C 177.19,153.249 178.857,152.915 180,149.5C 181.036,152.294 182.536,152.794 184.5,151C 184.167,150 183.833,149 183.5,148C 184,147.5 184.5,147 185,146.5C 186.147,147.458 187.147,147.125 188,145.5C 189.512,147.957 190.846,147.957 192,145.5C 192.423,146.956 193.256,147.456 194.5,147C 194.167,146.667 193.833,146.333 193.5,146C 194.267,144.53 194.933,143.03 195.5,141.5 Z"/></g>
<g><path style="opacity:1" fill="#5bb602" d="M 276.5,97.5 C 288.198,120.005 292.698,144.005 290,169.5C 289.008,177.616 287.508,185.616 285.5,193.5C 282.85,195.591 280.017,197.591 277,199.5C 276.667,199.167 276.333,198.833 276,198.5C 274.829,199.893 273.329,200.727 271.5,201C 273.891,202.309 273.891,203.309 271.5,204C 272.336,205.243 272.003,206.41 270.5,207.5C 270.167,206.833 269.833,206.167 269.5,205.5C 267.971,206.284 266.304,207.284 264.5,208.5C 263.702,208.043 263.369,207.376 263.5,206.5C 278.021,173.43 278.021,140.43 263.5,107.5C 265.391,106.464 267.224,106.464 269,107.5C 269.979,105.68 271.479,104.513 273.5,104C 272.044,103.577 271.544,102.744 272,101.5C 273.049,102.517 274.216,102.684 275.5,102C 275.167,101.667 274.833,101.333 274.5,101C 275.823,100.184 276.489,99.0174 276.5,97.5 Z"/></g>
<g><path style="opacity:1" fill="#5ebc00" d="M 193.5,172.5 C 177.83,195.012 162.33,217.678 147,240.5C 145.556,242.155 143.722,242.822 141.5,242.5C 141.5,225.5 141.5,208.5 141.5,191.5C 142.593,188.747 144.426,188.08 147,189.5C 147.677,187.311 148.844,186.978 150.5,188.5C 153.528,185.789 156.861,184.623 160.5,185C 162.651,183.43 164.818,181.93 167,180.5C 169.056,181.202 170.889,180.535 172.5,178.5C 173.906,179.668 175.072,179.335 176,177.5C 178.754,178.122 181.087,177.122 183,174.5C 185.655,175.262 187.655,174.262 189,171.5C 189.308,172.308 189.808,172.975 190.5,173.5C 191.213,171.565 192.213,171.232 193.5,172.5 Z"/></g>
<g><path style="opacity:1" fill="#63c602" d="M 43.5,191.5 C 49.0737,206.648 56.7404,220.648 66.5,233.5C 65.2825,234.161 63.9492,234.828 62.5,235.5C 63.6293,237.529 63.1293,237.863 61,236.5C 60.3848,238.116 59.3848,239.449 58,240.5C 56.2933,239.862 54.46,239.862 52.5,240.5C 42.022,228.557 34.3553,214.891 29.5,199.5C 31.7224,199.822 33.5557,199.155 35,197.5C 36.3639,198.258 37.5305,197.758 38.5,196C 37.1837,194.022 37.6837,192.522 40,191.5C 40.4186,192.672 41.0853,193.672 42,194.5C 42.6172,193.551 42.4506,192.718 41.5,192C 42.0944,191.536 42.7611,191.369 43.5,191.5 Z"/></g>
<g><path style="opacity:1" fill="#58b102" d="M 285.5,193.5 C 268.245,245.919 232.579,277.753 178.5,289C 165.868,290.488 153.201,290.821 140.5,290C 134.889,289.514 129.556,288.347 124.5,286.5C 125.873,286.657 127.207,286.49 128.5,286C 125.645,282.778 125.979,279.944 129.5,277.5C 129.833,278.167 130.167,278.833 130.5,279.5C 132.047,278.232 133.047,276.565 133.5,274.5C 132.23,273.712 131.23,272.712 130.5,271.5C 190.4,281.048 234.734,259.381 263.5,206.5C 263.369,207.376 263.702,208.043 264.5,208.5C 266.304,207.284 267.971,206.284 269.5,205.5C 269.833,206.167 270.167,206.833 270.5,207.5C 272.003,206.41 272.336,205.243 271.5,204C 273.891,203.309 273.891,202.309 271.5,201C 273.329,200.727 274.829,199.893 276,198.5C 276.333,198.833 276.667,199.167 277,199.5C 280.017,197.591 282.85,195.591 285.5,193.5 Z"/></g>
<g><path style="opacity:1" fill="#5ebc01" d="M 66.5,233.5 C 83.8162,252.829 105.15,265.496 130.5,271.5C 131.23,272.712 132.23,273.712 133.5,274.5C 133.047,276.565 132.047,278.232 130.5,279.5C 130.167,278.833 129.833,278.167 129.5,277.5C 125.979,279.944 125.645,282.778 128.5,286C 127.207,286.49 125.873,286.657 124.5,286.5C 94.9816,279.62 70.9816,264.287 52.5,240.5C 54.46,239.862 56.2933,239.862 58,240.5C 59.3848,239.449 60.3848,238.116 61,236.5C 63.1293,237.863 63.6293,237.529 62.5,235.5C 63.9492,234.828 65.2825,234.161 66.5,233.5 Z"/></g>
</svg>
