<?xml version="1.0" encoding="UTF-8"?>
<!DOCTYPE svg PUBLIC "-//W3C//DTD SVG 1.1//EN" "http://www.w3.org/Graphics/SVG/1.1/DTD/svg11.dtd">
<svg xmlns="http://www.w3.org/2000/svg" version="1.1" width="200px" height="200px" style="shape-rendering:geometricPrecision; text-rendering:geometricPrecision; image-rendering:optimizeQuality; fill-rule:evenodd; clip-rule:evenodd" xmlns:xlink="http://www.w3.org/1999/xlink">
<g><path style="opacity:0.988" fill="#010101" d="M 90.5,-0.5 C 96.8333,-0.5 103.167,-0.5 109.5,-0.5C 152.965,5.789 181.798,29.789 196,71.5C 197.199,76.2954 198.366,80.9621 199.5,85.5C 199.5,94.8333 199.5,104.167 199.5,113.5C 189.833,161.167 161.167,189.833 113.5,199.5C 104.167,199.5 94.8333,199.5 85.5,199.5C 36.6919,188.693 8.02525,158.693 -0.5,109.5C -0.5,103.167 -0.5,96.8333 -0.5,90.5C 8.19404,38.4726 38.5274,8.13928 90.5,-0.5 Z"/></g>
<g><path style="opacity:1" fill="#b1f4b6" d="M 98.5,38.5 C 116.274,48.2229 133.941,58.2229 151.5,68.5C 152.665,76.145 152.831,83.8117 152,91.5C 144.892,95.7987 137.726,99.632 130.5,103C 129.686,96.2471 129.186,89.4137 129,82.5C 112.63,72.6339 96.1299,62.9673 79.5,53.5C 78.269,52.3493 78.269,51.1827 79.5,50C 86.2296,46.6435 92.5629,42.8102 98.5,38.5 Z"/></g>
<g><path style="opacity:1" fill="#aff3b5" d="M 64.5,58.5 C 67.6907,59.0922 70.6907,60.2589 73.5,62C 78.3768,64.9322 83.0435,68.0988 87.5,71.5C 81.9557,75.5279 76.1223,79.1945 70,82.5C 69.5,102.164 69.3334,121.831 69.5,141.5C 61.4637,138.66 53.9637,134.66 47,129.5C 46.3333,109.5 46.3333,89.5 47,69.5C 52.8134,65.6835 58.6467,62.0168 64.5,58.5 Z"/></g>
<g><path style="opacity:1" fill="#b1f5b7" d="M 148.5,105.5 C 149.833,105.5 151.167,105.5 152.5,105.5C 152.831,113.86 152.498,122.193 151.5,130.5C 134.167,140.5 116.833,150.5 99.5,160.5C 93.4159,156.707 87.2493,153.041 81,149.5C 80.5003,141.173 80.3336,132.84 80.5,124.5C 86.6436,126.238 92.3102,129.072 97.5,133C 98.8333,133.667 100.167,133.667 101.5,133C 117.23,123.807 132.896,114.64 148.5,105.5 Z"/></g>
</svg>
